<svg xmlns="http://www.w3.org/2000/svg" xmlns:xlink="http://www.w3.org/1999/xlink" xmlns:inkscape="http://www.inkscape.org/namespaces/inkscape" version="1.1" width="1878.29" height="510.21" viewBox="0 0 1878.29 510.21">
<defs>
<clipPath id="clip_1">
<path transform="matrix(1,0,0,-1,0,510.21)" d="M0 510.21H1878.287V0H0Z"/>
</clipPath>
</defs>
<g clip-path="url(#clip_1)">
<path transform="matrix(1,0,0,-1,281.8999,122.8331)" d="M0 0C-11.097-42.763-36.855-79.654-71.577-104.951-81.575-112.235-95.097-112.235-105.095-104.951-139.818-79.654-165.576-42.764-176.673 0-180.181 13.518-173.647 27.83-160.754 33.198-138.45 42.483-113.981 47.597-88.336 47.597-62.692 47.597-38.223 42.483-15.919 33.198-3.026 27.83 3.508 13.518 0 0" fill="#126f59"/>
<path transform="matrix(1,0,0,-1,152.5185,415.3767)" d="M0 0C-17.589-13.364-39.119-19.885-60.583-19.079-66.764-18.846-72.075-14.663-73.749-8.709-79.561 11.97-78.265 34.428-69.394 54.658-66.59 61.053-59.596 64.653-52.871 62.773-41.238 59.52-30.045 53.958-19.972 46.024-9.899 38.091-1.87 28.512 4.018 17.965 7.421 11.868 5.56 4.224 0 0" fill="#126f59"/>
<path transform="matrix(1,0,0,-1,234.8356,303.7747)" d="M0 0C-18.79-27.291-46.406-46.683-77.366-55.604-86.28-58.173-95.81-54.705-100.988-47.007-118.97-20.272-127.66 12.334-124.512 45.318-123.517 55.745-115.24 64.156-104.777 64.632-86.677 65.454-68.12 62.782-50.047 56.203-31.974 49.625-16.041 39.745-2.704 27.48 5.006 20.39 5.94 8.627 0 0" fill="#c2ab90"/>
<path transform="matrix(1,0,0,-1,376.6477,179.1618)" d="M0 0H27.748C34.032 0 39.192 2.222 43.222 6.671 47.253 11.114 49.271 16.833 49.271 23.833 49.271 30.948 46.929 36.73 42.245 41.173 37.561 45.622 31.601 47.844 24.371 47.844H0ZM-17.429-60.651V63.851H24.549C32.845 63.851 40.169 62.162 46.51 58.785 52.857 55.403 57.834 50.693 61.451 44.644 65.069 38.596 66.877 31.659 66.877 23.833 66.877 16.122 65.215 9.248 61.896 3.199 58.576-2.844 53.981-7.591 48.115-11.03 42.245-14.47 35.512-16.185 27.926-16.185H0V-60.651Z" fill="#ffffff"/>
<path transform="matrix(1,0,0,-1,463.4478,239.81308)" d="M0 0V124.502H17.429V72.032H84.484V124.502H101.913V0H84.484V56.025H17.429V0Z" fill="#ffffff"/>
<path transform="matrix(1,0,0,-1,627.2566,239.81308)" d="M0 0V52.115L-44.466 124.502H-24.366L8.714 70.077 41.795 124.502H62.073L17.607 52.292V0Z" fill="#ffffff"/>
<path transform="matrix(1,0,0,-1,746.7766,241.94599)" d="M0 0C-6.639 0-12.656 .774-18.051 2.311-23.446 3.853-28.13 5.954-32.103 8.626-36.076 11.292-39.37 14.287-41.973 17.607-44.582 20.926-46.422 24.424-47.488 28.099L-30.592 33.614C-28.81 28.752-25.433 24.544-20.451 20.984-15.474 17.429-9.368 15.589-2.133 15.474 6.639 15.474 13.545 17.22 18.59 20.717 23.629 24.215 26.149 28.872 26.149 34.68 26.149 40.018 23.953 44.378 19.567 47.755 15.176 51.132 9.368 53.714 2.138 55.492L-12.269 59.224C-17.962 60.766-23.153 62.962-27.832 65.806-32.521 68.655-36.222 72.267-38.951 76.658-41.68 81.044-43.039 86.319-43.039 92.488-43.039 103.868-39.338 112.761-31.925 119.165-24.518 125.568-13.812 128.773 .178 128.773 8.244 128.773 15.239 127.497 21.167 124.946 27.095 122.395 31.988 119.044 35.841 114.899 39.694 110.743 42.449 106.184 44.111 101.202L27.215 95.509C25.197 100.847 21.758 105.144 16.901 108.406 12.034 111.663 6.048 113.299-1.066 113.299-8.537 113.299-14.434 111.516-18.762 107.962-23.091 104.402-25.255 99.54-25.255 93.376-25.255 88.159-23.566 84.155-20.184 81.369-16.807 78.582-12.269 76.481-6.582 75.059L7.826 71.499C19.447 68.655 28.428 63.94 34.774 57.358 41.116 50.776 44.289 43.573 44.289 35.747 44.289 28.993 42.6 22.913 39.218 17.518 35.841 12.123 30.859 7.852 24.277 4.71 17.701 1.574 9.608 0 0 0" fill="#ffffff"/>
<path transform="matrix(1,0,0,-1,0,510.21)" d="M815.431 394.899H832.86007V270.39698H815.431Z" fill="#ffffff"/>
<path transform="matrix(1,0,0,-1,918.5889,225.9389)" d="M0 0C8.417 0 15.887 2.07 22.411 6.226 28.93 10.372 34.032 16.065 37.707 23.3 41.382 30.53 43.222 38.889 43.222 48.377 43.222 57.745 41.356 66.072 37.618 73.365 33.886 80.658 28.726 86.377 22.144 90.533 15.563 94.678 8.004 96.754-.533 96.754-9.07 96.754-16.661 94.678-23.3 90.533-29.939 86.377-35.125 80.658-38.862 73.365-42.595 66.072-44.466 57.745-44.466 48.377-44.466 38.889-42.569 30.53-38.774 23.3-34.978 16.065-29.735 10.372-23.033 6.226-16.336 2.07-8.657 0 0 0M-.178-16.007C-12.269-16.007-23.007-13.283-32.37-7.826-41.738-2.373-49.062 5.217-54.336 14.941-59.616 24.659-62.251 35.747-62.251 48.199-62.251 60.887-59.616 72.063-54.336 81.724-49.062 91.39-41.795 98.981-32.547 104.491-23.3 110.006-12.63 112.766-.533 112.766 11.564 112.766 22.233 110.006 31.481 104.491 40.729 98.981 47.964 91.39 53.181 81.724 58.398 72.063 61.007 60.944 61.007 48.377 61.007 35.809 58.398 24.659 53.181 14.941 47.964 5.217 40.76-2.373 31.57-7.826 22.38-13.283 11.799-16.007-.178-16.007" fill="#ffffff"/>
<path transform="matrix(1,0,0,-1,1026.1951,239.81308)" d="M0 0V108.495H-38.951V124.502H56.563V108.495H17.612V0Z" fill="#ffffff"/>
<path transform="matrix(1,0,0,-1,1100.7206,239.81308)" d="M0 0V124.502H17.429V72.032H84.484V124.502H101.913V0H84.484V56.025H17.429V0Z" fill="#ffffff"/>
<path transform="matrix(1,0,0,-1,1234.2926,239.81308)" d="M0 0V124.502H74.881V108.495H17.429V71.499H69.188V55.847H17.429V16.007H75.236V0Z" fill="#ffffff"/>
<path transform="matrix(1,0,0,-1,1356.8342,176.1402)" d="M0 0H26.149C30.415 0 34.241 .978 37.618 2.938 41 4.893 43.724 7.559 45.8 10.941 47.875 14.319 48.915 18.145 48.915 22.411 48.915 29.05 46.599 34.445 41.978 38.596 37.352 42.747 31.366 44.822 24.011 44.822H0ZM-17.429-63.673V60.829H24.549C32.845 60.829 40.169 59.198 46.51 55.941 52.852 52.674 57.839 48.173 61.456 42.422 65.063 36.667 66.883 30.002 66.883 22.411 66.883 14.23 64.562 7.057 59.94 .889 55.319-5.275 49.271-9.781 41.8-12.625L71.859-63.673H52.109L24.371-16.007H22.055 19.567 0V-63.673Z" fill="#ffffff"/>
<path transform="matrix(1,0,0,-1,1476.0039,190.9031)" d="M0 0H42.856L21.517 53.536ZM-38.068-48.91 12.086 75.592H30.77L80.924-48.91H62.251L48.91-15.652H-6.054L-19.395-48.91Z" fill="#ffffff"/>
<path transform="matrix(1,0,0,-1,1591.7863,179.1618)" d="M0 0H27.748C34.032 0 39.187 2.222 43.222 6.671 47.248 11.114 49.265 16.833 49.265 23.833 49.265 30.948 46.923 36.73 42.24 41.173 37.555 45.622 31.596 47.844 24.371 47.844H0ZM-17.429-60.651V63.851H24.549C32.84 63.851 40.169 62.162 46.516 58.785 52.852 55.403 57.839 50.693 61.456 44.644 65.063 38.596 66.883 31.659 66.883 23.833 66.883 16.122 65.22 9.248 61.896 3.199 58.581-2.844 53.981-7.591 48.115-11.03 42.24-14.47 35.517-16.185 27.926-16.185H0V-60.651Z" fill="#ffffff"/>
<path transform="matrix(1,0,0,-1,0,510.21)" d="M1678.586 394.899H1696.015V270.39698H1678.586Z" fill="#ffffff"/>
<path transform="matrix(1,0,0,-1,1727.6741,239.81308)" d="M0 0V124.502H74.881V108.495H17.429V71.499H69.193V55.847H17.429V16.007H75.236V0Z" fill="#ffffff"/>
<path transform="matrix(1,0,0,-1,359.3703,350.054)" d="M0 0V63.934H9.499L30.686 32.605 51.785 63.934H61.284V0H52.334V49.501L30.598 17.445 8.95 49.412V0Z" fill="#ffffff"/>
<path transform="matrix(1,0,0,-1,449.1501,324.9351)" d="M0 0H22.014L11.051 27.492ZM-19.546-25.119 6.21 38.815H15.803L41.56-25.119H31.967L25.119-8.04H-3.105L-9.953-25.119Z" fill="#ffffff"/>
<path transform="matrix(1,0,0,-1,508.6096,317.35499)" d="M0 0H13.425C15.62 0 17.581 .502 19.316 1.506 21.052 2.509 22.453 3.879 23.519 5.615 24.586 7.35 25.119 9.316 25.119 11.506 25.119 14.915 23.932 17.685 21.554 19.818 19.18 21.951 16.106 23.017 12.332 23.017H0ZM-8.95-32.699V31.235H12.604C16.864 31.235 20.628 30.399 23.885 28.726 27.142 27.048 29.698 24.732 31.559 21.784 33.415 18.83 34.341 15.401 34.341 11.506 34.341 7.303 33.154 3.623 30.78 .455 28.407-2.713 25.302-5.024 21.465-6.488L36.902-32.699H26.76L12.515-8.223H11.328 10.048 0V-32.699Z" fill="#ffffff"/>
<path transform="matrix(1,0,0,-1,569.7104,350.054)" d="M0 0V55.716H-20.001V63.934H29.045V55.716H9.044V0Z" fill="#ffffff"/>
<path transform="matrix(1,0,0,-1,0,510.21)" d="M607.977 224.09H616.927V160.156H607.977Z" fill="#ffffff"/>
<path transform="matrix(1,0,0,-1,633.1848,350.054)" d="M0 0V63.934H9.227L45.392 14.977V63.934H54.436V0H45.392L8.95 49.412V0Z" fill="#ffffff"/>
<path transform="matrix(1,0,0,-1,726.1639,350.054)" d="M0 0V63.934H8.678V35.621L35.804 63.934H47.221L19.912 35.161 48.408 0H37.357L13.974 28.951 8.678 23.383V0Z" fill="#ffffff"/>
<path transform="matrix(1,0,0,-1,792.1997,317.35499)" d="M0 0H13.425C15.62 0 17.581 .502 19.316 1.506 21.052 2.509 22.453 3.879 23.519 5.615 24.586 7.35 25.119 9.316 25.119 11.506 25.119 14.915 23.932 17.685 21.554 19.818 19.18 21.951 16.106 23.017 12.332 23.017H0ZM-8.95-32.699V31.235H12.604C16.864 31.235 20.628 30.399 23.885 28.726 27.142 27.048 29.698 24.732 31.559 21.784 33.415 18.83 34.341 15.401 34.341 11.506 34.341 7.303 33.154 3.623 30.781 .455 28.407-2.713 25.302-5.024 21.465-6.488L36.902-32.699H26.76L12.515-8.223H11.328 10.048 0V-32.699Z" fill="#ffffff"/>
<path transform="matrix(1,0,0,-1,840.8797,350.054)" d="M0 0V63.934H38.449V55.716H8.95V36.714H35.527V28.679H8.95V8.218H38.632V0Z" fill="#ffffff"/>
<path transform="matrix(1,0,0,-1,903.7162,341.925)" d="M0 0H13.791C17.565 0 20.503 .899 22.604 2.692 24.706 4.491 25.757 6.911 25.757 9.953 25.757 13.367 24.549 15.997 22.144 17.858 19.74 19.714 16.378 20.639 12.055 20.639H0ZM0 28.313H13.153C16.441 28.313 19.039 29.196 20.958 30.963 22.876 32.725 23.838 35.161 23.838 38.266 23.838 41.497 22.74 43.975 20.55 45.711 18.354 47.446 15.28 48.314 11.323 48.314H0ZM-8.861-8.129V55.805H11.689C16.075 55.805 19.834 55.136 22.97 53.798 26.102 52.454 28.538 50.478 30.273 47.859 32.009 45.24 32.877 42.015 32.877 38.178 32.877 35.255 32.192 32.652 30.822 30.367 29.453 28.083 27.55 26.212 25.114 24.753 28.282 23.227 30.702 21.188 32.375 18.631 34.048 16.075 34.889 13.027 34.889 9.499 34.889 5.782 34.048 2.603 32.375-.047 30.702-2.692 28.344-4.705 25.297-6.075 22.254-7.444 18.6-8.129 14.339-8.129Z" fill="#ffffff"/>
<path transform="matrix(1,0,0,-1,959.5215,341.925)" d="M0 0H13.791C17.565 0 20.503 .899 22.604 2.692 24.706 4.491 25.757 6.911 25.757 9.953 25.757 13.367 24.549 15.997 22.144 17.858 19.74 19.714 16.378 20.639 12.055 20.639H0ZM0 28.313H13.153C16.441 28.313 19.039 29.196 20.958 30.963 22.876 32.725 23.838 35.161 23.838 38.266 23.838 41.497 22.74 43.975 20.55 45.711 18.354 47.446 15.28 48.314 11.323 48.314H0ZM-8.861-8.129V55.805H11.689C16.075 55.805 19.834 55.136 22.97 53.798 26.102 52.454 28.538 50.478 30.273 47.859 32.009 45.24 32.877 42.015 32.877 38.178 32.877 35.255 32.192 32.652 30.822 30.367 29.453 28.083 27.55 26.212 25.114 24.753 28.282 23.227 30.702 21.188 32.375 18.631 34.048 16.075 34.889 13.027 34.889 9.499 34.889 5.782 34.048 2.603 32.375-.047 30.702-2.692 28.344-4.705 25.297-6.075 22.254-7.444 18.6-8.129 14.339-8.129Z" fill="#ffffff"/>
<path transform="matrix(1,0,0,-1,1006.4659,350.054)" d="M0 0V63.934H38.449V55.716H8.95V36.714H35.527V28.679H8.95V8.218H38.632V0Z" fill="#ffffff"/>
<path transform="matrix(1,0,0,-1,1069.3912,317.35499)" d="M0 0H13.425C15.62 0 17.581 .502 19.316 1.506 21.052 2.509 22.453 3.879 23.519 5.615 24.586 7.35 25.119 9.316 25.119 11.506 25.119 14.915 23.932 17.685 21.554 19.818 19.18 21.951 16.106 23.017 12.332 23.017H0ZM-8.95-32.699V31.235H12.604C16.864 31.235 20.628 30.399 23.885 28.726 27.142 27.048 29.698 24.732 31.559 21.784 33.415 18.83 34.34 15.401 34.34 11.506 34.34 7.303 33.154 3.623 30.781 .455 28.407-2.713 25.302-5.024 21.465-6.488L36.902-32.699H26.76L12.515-8.223H11.328 10.048 0V-32.699Z" fill="#ffffff"/>
<path transform="matrix(1,0,0,-1,364.3763,416.013)" d="M0 0H8.366C10.28 0 11.827 .656 13.034 1.993 14.266 3.357 14.869 5.061 14.869 7.186 14.869 9.336 14.161 11.093 12.745 12.431 11.329 13.768 9.546 14.45 7.343 14.45H0ZM-5.271-18.331V19.275H7.395C9.913 19.275 12.116 18.751 14.03 17.728 15.945 16.731 17.466 15.289 18.541 13.48 19.642 11.644 20.193 9.546 20.193 7.186 20.193 4.852 19.695 2.78 18.672 .944 17.675-.865 16.286-2.308 14.529-3.331 12.745-4.38 10.726-4.904 8.418-4.904H0V-18.331Z" fill="#c2ab90"/>
<path transform="matrix(1,0,0,-1,406.5718,415.1214)" d="M0 0H7.894C9.179 0 10.333 .315 11.355 .892 12.378 1.495 13.217 2.282 13.847 3.304 14.45 4.327 14.765 5.481 14.765 6.766 14.765 8.785 14.083 10.411 12.693 11.67 11.277 12.929 9.467 13.558 7.264 13.558H0ZM-5.245-19.223V18.384H7.422C9.913 18.384 12.142 17.885 14.056 16.915 15.971 15.918 17.466 14.555 18.567 12.824 19.642 11.093 20.193 9.074 20.193 6.766 20.193 4.301 19.511 2.15 18.095 .288 16.705-1.573 14.896-2.937 12.64-3.803L21.714-19.223H15.735L7.369-4.825H6.661 5.927 0V-19.223Z" fill="#c2ab90"/>
<path transform="matrix(1,0,0,-1,0,510.21)" d="M445.961 113.472H451.206V75.866H445.961Z" fill="#c2ab90"/>
<path transform="matrix(1,0,0,-1,482.6235,434.3441)" d="M0 0-15.394 37.606H-9.756L2.911 6.137 15.63 37.606H21.268L5.874 0Z" fill="#c2ab90"/>
<path transform="matrix(1,0,0,-1,524.2422,419.5796)" d="M0 0H12.955L6.504 16.181ZM-11.486-14.765 3.671 22.842H9.31L24.441-14.765H18.803L14.791-4.72H-1.81L-5.848-14.765Z" fill="#c2ab90"/>
<path transform="matrix(1,0,0,-1,571.0795,434.3441)" d="M0 0V32.781H-11.749V37.606H17.099V32.781H5.324V0Z" fill="#c2ab90"/>
<path transform="matrix(1,0,0,-1,609.6037,416.013)" d="M0 0H8.366C10.28 0 11.827 .656 13.034 1.993 14.266 3.357 14.869 5.061 14.869 7.186 14.869 9.336 14.161 11.093 12.745 12.431 11.329 13.768 9.546 14.45 7.343 14.45H0ZM-5.271-18.331V19.275H7.395C9.913 19.275 12.116 18.751 14.03 17.728 15.945 16.731 17.466 15.289 18.541 13.48 19.642 11.644 20.193 9.546 20.193 7.186 20.193 4.852 19.695 2.78 18.672 .944 17.675-.865 16.286-2.308 14.529-3.331 12.745-4.38 10.726-4.904 8.418-4.904H0V-18.331Z" fill="#c2ab90"/>
<path transform="matrix(1,0,0,-1,651.7993,415.1214)" d="M0 0H7.894C9.179 0 10.333 .315 11.355 .892 12.378 1.495 13.217 2.282 13.847 3.304 14.45 4.327 14.765 5.481 14.765 6.766 14.765 8.785 14.083 10.411 12.693 11.67 11.277 12.929 9.467 13.558 7.264 13.558H0ZM-5.245-19.223V18.384H7.422C9.913 18.384 12.142 17.885 14.056 16.915 15.971 15.918 17.466 14.555 18.567 12.824 19.642 11.093 20.193 9.074 20.193 6.766 20.193 4.301 19.511 2.15 18.095 .288 16.705-1.573 14.896-2.937 12.64-3.803L21.714-19.223H15.735L7.369-4.825H6.661 5.927 0V-19.223Z" fill="#c2ab90"/>
<path transform="matrix(1,0,0,-1,698.5317,419.5796)" d="M0 0H12.955L6.504 16.181ZM-11.486-14.765 3.671 22.842H9.31L24.441-14.765H18.803L14.791-4.72H-1.81L-5.848-14.765Z" fill="#c2ab90"/>
<path transform="matrix(1,0,0,-1,734.7481,434.3441)" d="M0 0 13.479 19.118 .105 37.606H6.425L16.469 23.366 26.408 37.606H32.755L19.432 19.118 32.86 0H26.408L16.469 14.817 6.425 0Z" fill="#c2ab90"/>
<path transform="matrix(1,0,0,-1,0,510.21)" d="M783.683 113.472H788.928V75.866H783.683Z" fill="#c2ab90"/>
<path transform="matrix(1,0,0,-1,821.3683,434.97349)" d="M0 0C-2.019 0-3.829 .236-5.455 .682-7.081 1.154-8.497 1.783-9.703 2.596-10.909 3.409-11.88 4.301-12.667 5.297-13.479 6.32-14.03 7.369-14.345 8.471L-9.231 10.149C-8.707 8.68-7.684 7.395-6.189 6.32-4.668 5.245-2.832 4.694-.656 4.668 1.993 4.668 4.091 5.192 5.612 6.241 7.133 7.317 7.894 8.707 7.894 10.464 7.894 12.063 7.238 13.401 5.901 14.424 4.589 15.42 2.832 16.207 .629 16.758L-3.698 17.885C-5.429 18.331-7.002 19.013-8.418 19.852-9.834 20.718-10.936 21.819-11.775 23.13-12.588 24.468-13.007 26.067-13.007 27.929-13.007 31.365-11.88 34.04-9.651 35.98-7.395 37.921-4.17 38.865 .052 38.865 2.491 38.865 4.589 38.498 6.399 37.711 8.182 36.951 9.651 35.928 10.831 34.695 11.985 33.437 12.824 32.047 13.322 30.552L8.208 28.821C7.605 30.447 6.556 31.732 5.088 32.728 3.619 33.699 1.836 34.197-.315 34.197-2.57 34.197-4.353 33.673-5.665 32.597-6.976 31.522-7.631 30.054-7.631 28.192-7.631 26.618-7.107 25.412-6.11 24.573-5.088 23.733-3.698 23.078-1.993 22.658L2.36 21.583C5.874 20.718 8.576 19.301 10.49 17.308 12.404 15.315 13.375 13.139 13.375 10.778 13.375 8.733 12.85 6.923 11.827 5.271 10.831 3.645 9.31 2.36 7.317 1.416 5.35 .472 2.885 0 0 0" fill="#c2ab90"/>
</g>
</svg>
